<svg width="16" height="18" viewBox="0 0 16 18" fill="none" xmlns="http://www.w3.org/2000/svg">
<path d="M3.33331 17.875H5.41665V14.75H11.6666V12.6667H5.41665V10.5834H10.1041C12.976 10.5834 15.3125 8.2469 15.3125 5.37502C15.3125 2.50315 12.976 0.166687 10.1041 0.166687H4.37498C4.09871 0.166687 3.83376 0.276434 3.63841 0.471784C3.44306 0.667135 3.33331 0.932087 3.33331 1.20835V8.50002H0.208313V10.5834H3.33331V12.6667H0.208313V14.75H3.33331V17.875ZM5.41665 2.25002H10.1041C11.8271 2.25002 13.2291 3.6521 13.2291 5.37502C13.2291 7.09794 11.8271 8.50002 10.1041 8.50002H5.41665V2.25002Z" fill="#4C87EC"/>
</svg>
