<svg width="9" height="10" viewBox="0 0 9 10" fill="none" xmlns="http://www.w3.org/2000/svg">
<path d="M8.92277 8.95312C8.89259 9.00539 8.84919 9.04879 8.79692 9.07896C8.74465 9.10913 8.68535 9.12501 8.625 9.12499H0.374999C0.314688 9.12493 0.255455 9.109 0.203247 9.07881C0.15104 9.04861 0.107695 9.00521 0.0775666 8.95297C0.047438 8.90072 0.0315855 8.84147 0.031601 8.78116C0.0316164 8.72085 0.0474993 8.6616 0.0776548 8.60937C0.732069 7.478 1.74055 6.66675 2.91746 6.28218C2.3353 5.93562 1.88301 5.40754 1.63002 4.77905C1.37704 4.15055 1.33736 3.45639 1.51708 2.80316C1.6968 2.14992 2.08598 1.57375 2.62485 1.16311C3.16373 0.752471 3.8225 0.530075 4.5 0.530075C5.1775 0.530075 5.83627 0.752471 6.37514 1.16311C6.91402 1.57375 7.3032 2.14992 7.48291 2.80316C7.66263 3.45639 7.62295 4.15055 7.36997 4.77905C7.11699 5.40754 6.66469 5.93562 6.08254 6.28218C7.25945 6.66675 8.26793 7.478 8.92234 8.60937C8.95258 8.66159 8.96854 8.72085 8.96861 8.78119C8.96869 8.84153 8.95288 8.90082 8.92277 8.95312Z" fill="#9B51E0"/>
</svg>
