<svg width="40" height="40" viewBox="0 0 40 40" fill="none" xmlns="http://www.w3.org/2000/svg">
<g clip-path="url(#clip0_2_2951)">
<path d="M39.9994 10.9564H10.3237V3.74856C10.3237 2.7835 11.1078 1.99939 12.0729 1.99939H38.22C39.1851 1.99939 39.9692 2.7835 39.9692 3.74856V10.9564H39.9994Z" fill="#41A5ED"/>
<path d="M39.9994 10.9564H10.3237V19.9436H39.9994V10.9564Z" fill="#2C7BD5"/>
<path d="M39.9994 19.9435H10.3237V28.9306H39.9994V19.9435Z" fill="#195ABE"/>
<path d="M38.2502 37.8876H12.1031C11.138 37.8876 10.3539 37.1035 10.3539 36.1385V28.9307H39.9993V36.1385C39.9993 37.1035 39.2152 37.8876 38.2502 37.8876Z" fill="#103E91"/>
<path d="M19.3412 29.7447H3.35737C2.30183 29.7447 1.42725 28.8701 1.42725 27.8145V12.072C1.42725 11.0165 2.30183 10.1418 3.35737 10.1418H19.3412C20.3967 10.1418 21.2713 11.0165 21.2713 12.072V27.8145C21.2713 28.8701 20.4269 29.7447 19.3412 29.7447Z" fill="#2166C3"/>
<path d="M7.21778 25.4928L4.53369 14.666H6.67493L7.73045 19.5818C8.00187 20.9088 8.2733 22.2659 8.45425 23.3516H8.48442C8.66537 22.2056 8.96692 20.9389 9.26852 19.5516L10.4447 14.666H12.5558L13.6415 19.6421C13.9129 20.9389 14.1541 22.1151 14.3049 23.2913H14.3351C14.516 22.0849 14.7875 20.8786 15.0891 19.5516L16.2351 14.666H18.2858L15.3303 25.4928H13.1589L12.0129 20.3961C11.7415 19.1897 11.5304 18.1643 11.3796 16.9882H11.3494C11.1685 18.1342 10.9574 19.1897 10.6256 20.4262L9.35899 25.523H7.21778V25.4928Z" fill="white"/>
<path opacity="0.2" d="M21.2711 11.8911C21.2711 11.9514 21.2711 12.0117 21.2711 12.0721V27.8146C21.2711 28.8701 20.3966 29.7447 19.341 29.7447H10.3539V31.4637H20.9696C22.0251 31.4637 22.8997 30.5892 22.8997 29.5336V13.7911C22.8997 12.826 22.206 12.0117 21.2711 11.8911Z" fill="black"/>
</g>
<defs>
<clipPath id="clip0_2_2951">
<rect width="38.5727" height="36.0012" fill="white" transform="translate(1.42725 1.99939)"/>
</clipPath>
</defs>
</svg>
