<svg width="32" height="40" viewBox="0 0 32 40" fill="none" xmlns="http://www.w3.org/2000/svg">
<mask id="mask0_2_2936" style="mask-type:luminance" maskUnits="userSpaceOnUse" x="0" y="0" width="32" height="40">
<path d="M31.0785 0H0.921478V40H31.0785V0Z" fill="white"/>
</mask>
<g mask="url(#mask0_2_2936)">
<path d="M0.921478 3.33351C0.921478 2.4494 1.27452 1.60151 1.90295 0.97636C2.53138 0.351206 3.3837 0 4.27243 0H21.3137C22.2023 0 23.0547 0.350999 23.6829 0.9765L30.097 7.35701C30.7255 7.98209 31.0785 8.82993 31.0785 9.71399V36.6666C31.0785 37.5506 30.7255 38.3985 30.097 39.0237C29.4687 39.6488 28.6163 40 27.7276 40H4.27243C3.3837 40 2.53138 39.6488 1.90295 39.0237C1.27452 38.3985 0.921478 37.5506 0.921478 36.6666V3.33351Z" fill="white"/>
<path fill-rule="evenodd" clip-rule="evenodd" d="M4.27243 0C3.3837 0 2.53138 0.351206 1.90295 0.97636C1.27452 1.60151 0.921478 2.4494 0.921478 3.33351V36.6666C0.921478 37.5506 1.27452 38.3985 1.90295 39.0237C2.53138 39.6488 3.3837 40 4.27243 40H27.7276C28.6163 40 29.4687 39.6488 30.097 39.0237C30.7255 38.3985 31.0785 37.5506 31.0785 36.6666V9.71399C31.0785 8.82993 30.7255 7.98209 30.097 7.35701L23.6829 0.9765C23.0547 0.35133 22.2023 7.45005e-05 21.3137 0H4.27243Z" fill="#D32F2F"/>
<path fill-rule="evenodd" clip-rule="evenodd" d="M21.3136 0.833374H4.27184C3.60532 0.833374 2.96612 1.09677 2.49483 1.56561C2.02353 2.03445 1.75876 2.67034 1.75876 3.33338V36.6664C1.75876 37.3294 2.02353 37.9652 2.49483 38.4341C2.96612 38.903 3.60532 39.1665 4.27184 39.1665H27.7275C28.3939 39.1665 29.0333 38.903 29.5045 38.4341C29.9759 37.9652 30.2406 37.3294 30.2406 36.6664V9.71388C30.2406 9.38554 30.1757 9.06041 30.0494 8.75706C29.9231 8.45371 29.738 8.17807 29.5047 7.94588L23.0903 1.56537C22.6191 1.09669 21.9799 0.833384 21.3136 0.833374Z" fill="#EF5350"/>
<path d="M7.81366 24.4743V27.307H6.15707V19.267H9.29353C9.89726 19.267 10.4274 19.3774 10.8838 19.5984C11.344 19.8191 11.6974 20.1339 11.944 20.5425C12.1907 20.9474 12.314 21.4096 12.314 21.9285C12.314 22.7164 12.0435 23.3386 11.5023 23.7951C10.9648 24.2479 10.2194 24.4743 9.26593 24.4743H7.81366ZM7.81366 23.1325H9.29353C9.73161 23.1325 10.0648 23.0293 10.293 22.8232C10.5249 22.6171 10.6409 22.3225 10.6409 21.9396C10.6409 21.5457 10.5249 21.2274 10.293 20.9845C10.0611 20.7414 9.7408 20.6162 9.33219 20.6089H7.81366V23.1325ZM13.4571 27.307V19.267H15.9309C16.6377 19.267 17.269 19.4271 17.8249 19.7473C18.3845 20.0639 18.8207 20.5167 19.1336 21.1059C19.4465 21.6913 19.603 22.3574 19.603 23.1049V23.4747C19.603 24.2222 19.4484 24.8862 19.1391 25.468C18.8336 26.0496 18.401 26.5009 17.8415 26.8211C17.2819 27.1413 16.6506 27.3034 15.9475 27.307H13.4571ZM15.1136 20.6089V25.9763H15.9143C16.5622 25.9763 17.0574 25.7646 17.3997 25.3411C17.7421 24.9179 17.9169 24.3122 17.9243 23.5246V23.0992C17.9243 22.282 17.755 21.6636 17.4163 21.2439C17.0776 20.8204 16.5825 20.6089 15.9309 20.6089H15.1136ZM25.6494 24.0215H22.4687V27.307H20.8123V19.267H26.0469V20.6089H22.4687V22.6852H25.6494V24.0215Z" fill="white"/>
<path d="M22.702 0.299438C23.0639 0.462938 23.3967 0.690938 23.6831 0.975939L30.097 7.35695C30.3807 7.63908 30.6113 7.96968 30.7776 8.33295H25.2151C24.5485 8.33295 23.9093 8.06956 23.4381 7.6007C22.9667 7.13186 22.702 6.49599 22.702 5.83295V0.299939V0.299438Z" fill="#D32F2F"/>
</g>
</svg>
