<svg width="14" height="14" viewBox="0 0 14 14" fill="none" xmlns="http://www.w3.org/2000/svg">
<path d="M11.9548 7.65337C11.9815 7.44004 12.0015 7.22671 12.0015 7.00004C12.0015 6.77337 11.9815 6.56004 11.9548 6.34671L13.3615 5.24671C13.4881 5.14671 13.5215 4.96671 13.4415 4.82004L12.1081 2.51337C12.0481 2.40671 11.9348 2.34671 11.8148 2.34671C11.7748 2.34671 11.7348 2.35337 11.7015 2.36671L10.0415 3.03337C9.69481 2.76671 9.32148 2.54671 8.91481 2.38004L8.66148 0.613374C8.64148 0.453374 8.50148 0.333374 8.33481 0.333374H5.66815C5.50148 0.333374 5.36148 0.453374 5.34148 0.613374L5.08815 2.38004C4.68148 2.54671 4.30815 2.77337 3.96148 3.03337L2.30148 2.36671C2.26148 2.35337 2.22148 2.34671 2.18148 2.34671C2.06815 2.34671 1.95481 2.40671 1.89481 2.51337L0.56148 4.82004C0.474813 4.96671 0.514813 5.14671 0.64148 5.24671L2.04815 6.34671C2.02148 6.56004 2.00148 6.78004 2.00148 7.00004C2.00148 7.22004 2.02148 7.44004 2.04815 7.65337L0.64148 8.75337C0.514813 8.85337 0.48148 9.03337 0.56148 9.18004L1.89481 11.4867C1.95481 11.5934 2.06815 11.6534 2.18815 11.6534C2.22815 11.6534 2.26815 11.6467 2.30148 11.6334L3.96148 10.9667C4.30815 11.2334 4.68148 11.4534 5.08815 11.62L5.34148 13.3867C5.36148 13.5467 5.50148 13.6667 5.66815 13.6667H8.33481C8.50148 13.6667 8.64148 13.5467 8.66148 13.3867L8.91481 11.62C9.32148 11.4534 9.69481 11.2267 10.0415 10.9667L11.7015 11.6334C11.7415 11.6467 11.7815 11.6534 11.8215 11.6534C11.9348 11.6534 12.0481 11.5934 12.1081 11.4867L13.4415 9.18004C13.5215 9.03337 13.4881 8.85337 13.3615 8.75337L11.9548 7.65337ZM10.6348 6.51337C10.6615 6.72004 10.6681 6.86004 10.6681 7.00004C10.6681 7.14004 10.6548 7.28671 10.6348 7.48671L10.5415 8.24004L11.1348 8.70671L11.8548 9.26671L11.3881 10.0734L10.5415 9.73337L9.84815 9.45337L9.24815 9.90671C8.96148 10.12 8.68815 10.28 8.41481 10.3934L7.70815 10.68L7.60148 11.4334L7.46815 12.3334H6.53481L6.30148 10.68L5.59481 10.3934C5.30815 10.2734 5.04148 10.12 4.77481 9.92004L4.16815 9.45337L3.46148 9.74004L2.61481 10.08L2.14815 9.27337L2.86815 8.71337L3.46148 8.24671L3.36815 7.49337C3.34815 7.28671 3.33481 7.13337 3.33481 7.00004C3.33481 6.86671 3.34815 6.71337 3.36815 6.51337L3.46148 5.76004L2.86815 5.29337L2.14815 4.73337L2.61481 3.92671L3.46148 4.26671L4.15481 4.54671L4.75481 4.09337C5.04148 3.88004 5.31481 3.72004 5.58815 3.60671L6.29481 3.32004L6.40148 2.56671L6.53481 1.66671H7.46148L7.69481 3.32004L8.40148 3.60671C8.68815 3.72671 8.95481 3.88004 9.22148 4.08004L9.82815 4.54671L10.5348 4.26004L11.3815 3.92004L11.8481 4.72671L11.1348 5.29337L10.5415 5.76004L10.6348 6.51337ZM7.00148 4.33337C5.52815 4.33337 4.33481 5.52671 4.33481 7.00004C4.33481 8.47337 5.52815 9.66671 7.00148 9.66671C8.47481 9.66671 9.66815 8.47337 9.66815 7.00004C9.66815 5.52671 8.47481 4.33337 7.00148 4.33337ZM7.00148 8.33337C6.26815 8.33337 5.66815 7.73337 5.66815 7.00004C5.66815 6.26671 6.26815 5.66671 7.00148 5.66671C7.73481 5.66671 8.33481 6.26671 8.33481 7.00004C8.33481 7.73337 7.73481 8.33337 7.00148 8.33337Z" fill="#828282"/>
</svg>
