<svg width="31" height="22" viewBox="0 0 31 22" fill="none" xmlns="http://www.w3.org/2000/svg">
<path d="M30.4912 10.565C30.2637 4.6925 25.3837 0 19.5075 0C17.4634 0.000319906 15.4597 0.569575 13.7207 1.64404C11.9817 2.71851 10.5761 4.25577 9.66125 6.08375C8.90087 7.59921 8.50332 9.27073 8.5 10.9663C8.50392 11.2239 8.41043 11.4735 8.23823 11.6652C8.06603 11.8568 7.82782 11.9764 7.57125 12C7.43406 12.0098 7.29632 11.9912 7.16665 11.9453C7.03698 11.8995 6.91816 11.8274 6.81762 11.7335C6.71708 11.6397 6.63698 11.5261 6.58233 11.3999C6.52768 11.2737 6.49965 11.1375 6.5 11C6.49894 9.6013 6.72436 8.21165 7.1675 6.885C7.1967 6.79994 7.20241 6.70857 7.18404 6.62053C7.16566 6.53249 7.12388 6.45104 7.0631 6.38475C7.00232 6.31847 6.92478 6.2698 6.83866 6.24389C6.75254 6.21797 6.66102 6.21577 6.57375 6.2375C4.84103 6.66937 3.30227 7.66778 2.20185 9.07416C1.10143 10.4805 0.502437 12.2143 0.5 14C0.5 18.3988 4.21875 22 8.625 22H19.5C20.9807 21.9984 22.4459 21.6982 23.8079 21.1173C25.1699 20.5364 26.4007 19.6868 27.4268 18.6193C28.4529 17.5518 29.2531 16.2883 29.7797 14.9044C30.3062 13.5205 30.5482 12.0446 30.4912 10.565ZM24.2075 11.7075C24.1146 11.8005 24.0043 11.8742 23.8829 11.9246C23.7615 11.9749 23.6314 12.0008 23.5 12.0008C23.3686 12.0008 23.2385 11.9749 23.1171 11.9246C22.9957 11.8742 22.8854 11.8005 22.7925 11.7075L20.5 9.41375V17C20.5 17.2652 20.3946 17.5196 20.2071 17.7071C20.0196 17.8946 19.7652 18 19.5 18C19.2348 18 18.9804 17.8946 18.7929 17.7071C18.6054 17.5196 18.5 17.2652 18.5 17V9.41375L16.2075 11.7075C16.0199 11.8951 15.7654 12.0006 15.5 12.0006C15.2346 12.0006 14.9801 11.8951 14.7925 11.7075C14.6049 11.5199 14.4994 11.2654 14.4994 11C14.4994 10.7346 14.6049 10.4801 14.7925 10.2925L18.7925 6.2925C18.8854 6.19952 18.9957 6.12576 19.1171 6.07544C19.2385 6.02512 19.3686 5.99921 19.5 5.99921C19.6314 5.99921 19.7615 6.02512 19.8829 6.07544C20.0043 6.12576 20.1146 6.19952 20.2075 6.2925L24.2075 10.2925C24.3005 10.3854 24.3742 10.4957 24.4246 10.6171C24.4749 10.7385 24.5008 10.8686 24.5008 11C24.5008 11.1314 24.4749 11.2615 24.4246 11.3829C24.3742 11.5043 24.3005 11.6146 24.2075 11.7075Z" fill="#2F80ED"/>
</svg>
