<svg width="8" height="6" viewBox="0 0 8 6" fill="none" xmlns="http://www.w3.org/2000/svg">
<path d="M0.208353 1.69794L3.70835 5.20835C3.75002 5.25002 3.79516 5.27947 3.84377 5.29669C3.89238 5.31419 3.94446 5.32294 4.00002 5.32294C4.05558 5.32294 4.10766 5.31419 4.15627 5.29669C4.20488 5.27947 4.25002 5.25002 4.29169 5.20835L7.8021 1.69794C7.89933 1.60071 7.94794 1.47919 7.94794 1.33335C7.94794 1.18752 7.89585 1.06252 7.79169 0.958354C7.68752 0.854187 7.56599 0.802104 7.4271 0.802104C7.28821 0.802104 7.16669 0.854188 7.06252 0.958354L4.00002 4.02085L0.93752 0.958354C0.840298 0.861132 0.720576 0.812521 0.578354 0.812521C0.435854 0.812521 0.31252 0.864604 0.208353 0.968771C0.104187 1.07294 0.0521033 1.19447 0.0521033 1.33335C0.0521034 1.47224 0.104187 1.59377 0.208353 1.69794Z" fill="#30364A"/>
</svg>
