<svg width="12" height="11" viewBox="0 0 12 11" fill="none" xmlns="http://www.w3.org/2000/svg">
<path fill-rule="evenodd" clip-rule="evenodd" d="M11.1386 0.609917C11.1095 0.539733 11.0669 0.475926 11.0132 0.422083L11.0109 0.41975C10.9016 0.311059 10.7538 0.250032 10.5996 0.25H7.09965C6.94494 0.25 6.79657 0.311458 6.68717 0.420854C6.57778 0.530251 6.51632 0.678624 6.51632 0.833333C6.51632 0.988043 6.57778 1.13642 6.68717 1.24581C6.79657 1.35521 6.94494 1.41667 7.09965 1.41667H9.19148L4.93723 5.67092C4.88152 5.72473 4.83708 5.78909 4.80651 5.86026C4.77594 5.93143 4.75984 6.00798 4.75917 6.08543C4.7585 6.16289 4.77326 6.2397 4.80259 6.31139C4.83192 6.38308 4.87523 6.44821 4.93 6.50298C4.98477 6.55775 5.0499 6.60107 5.12159 6.6304C5.19328 6.65973 5.2701 6.67449 5.34755 6.67381C5.425 6.67314 5.50155 6.65705 5.57272 6.62648C5.64389 6.5959 5.70826 6.55146 5.76207 6.49575L10.0163 2.2415V4.33333C10.0163 4.48804 10.0778 4.63642 10.1872 4.74581C10.2966 4.85521 10.4449 4.91667 10.5996 4.91667C10.7544 4.91667 10.9027 4.85521 11.0121 4.74581C11.1215 4.63642 11.183 4.48804 11.183 4.33333V0.831583C11.183 0.755361 11.1682 0.681472 11.1386 0.609917ZM0.682983 3.16667C0.682983 2.39312 0.990274 1.65125 1.53726 1.10427C2.08424 0.557291 2.8261 0.25 3.59965 0.25H4.18298C4.33769 0.25 4.48607 0.311458 4.59546 0.420854C4.70486 0.530251 4.76632 0.678624 4.76632 0.833333C4.76632 0.988043 4.70486 1.13642 4.59546 1.24581C4.48607 1.35521 4.33769 1.41667 4.18298 1.41667H3.59965C3.13552 1.41667 2.6904 1.60104 2.36221 1.92923C2.03402 2.25742 1.84965 2.70254 1.84965 3.16667V7.83333C1.84965 8.29746 2.03402 8.74258 2.36221 9.07077C2.6904 9.39896 3.13552 9.58333 3.59965 9.58333H8.26632C8.73044 9.58333 9.17556 9.39896 9.50375 9.07077C9.83194 8.74258 10.0163 8.29746 10.0163 7.83333V7.25C10.0163 7.09529 10.0778 6.94692 10.1872 6.83752C10.2966 6.72812 10.4449 6.66667 10.5996 6.66667C10.7544 6.66667 10.9027 6.72812 11.0121 6.83752C11.1215 6.94692 11.183 7.09529 11.183 7.25V7.83333C11.183 8.60688 10.8757 9.34875 10.3287 9.89573C9.78173 10.4427 9.03986 10.75 8.26632 10.75H3.59965C2.8261 10.75 2.08424 10.4427 1.53726 9.89573C0.990274 9.34875 0.682983 8.60688 0.682983 7.83333V3.16667Z" fill="#4C87EC"/>
</svg>
