<svg width="19" height="11" viewBox="0 0 19 11" fill="none" xmlns="http://www.w3.org/2000/svg">
<path d="M9.5 6.09375C10.7904 6.09375 11.9304 6.4025 12.8567 6.80625C13.7117 7.18625 14.25 8.04125 14.25 8.9675V9.45833C14.25 9.89375 13.8938 10.25 13.4583 10.25H5.54167C5.10625 10.25 4.75 9.89375 4.75 9.45833V8.97542C4.75 8.04125 5.28833 7.18625 6.14333 6.81417C7.06958 6.4025 8.20958 6.09375 9.5 6.09375ZM3.16667 6.29167C4.0375 6.29167 4.75 5.57917 4.75 4.70833C4.75 3.8375 4.0375 3.125 3.16667 3.125C2.29583 3.125 1.58333 3.8375 1.58333 4.70833C1.58333 5.57917 2.29583 6.29167 3.16667 6.29167ZM4.06125 7.1625C3.76833 7.115 3.47542 7.08333 3.16667 7.08333C2.38292 7.08333 1.63875 7.24958 0.965833 7.5425C0.38 7.79583 0 8.36583 0 9.00708V9.45833C0 9.89375 0.35625 10.25 0.791667 10.25H3.5625V8.97542C3.5625 8.31833 3.74458 7.70083 4.06125 7.1625ZM15.8333 6.29167C16.7042 6.29167 17.4167 5.57917 17.4167 4.70833C17.4167 3.8375 16.7042 3.125 15.8333 3.125C14.9625 3.125 14.25 3.8375 14.25 4.70833C14.25 5.57917 14.9625 6.29167 15.8333 6.29167ZM19 9.00708C19 8.36583 18.62 7.79583 18.0342 7.5425C17.3613 7.24958 16.6171 7.08333 15.8333 7.08333C15.5246 7.08333 15.2317 7.115 14.9388 7.1625C15.2554 7.70083 15.4375 8.31833 15.4375 8.97542V10.25H18.2083C18.6438 10.25 19 9.89375 19 9.45833V9.00708ZM9.5 0.75C10.8142 0.75 11.875 1.81083 11.875 3.125C11.875 4.43917 10.8142 5.5 9.5 5.5C8.18583 5.5 7.125 4.43917 7.125 3.125C7.125 1.81083 8.18583 0.75 9.5 0.75Z" fill="white"/>
</svg>
