<svg width="41" height="40" viewBox="0 0 41 40" fill="none" xmlns="http://www.w3.org/2000/svg">
<g clip-path="url(#clip0_2_2968)">
<path d="M40.557 10.8444H25.6892V19.8314H40.557V10.8444Z" fill="#21A365"/>
<path d="M40.557 19.8315H25.6892V28.8186H40.557V19.8315Z" fill="#107C41"/>
<path d="M25.6892 10.8444H10.8516V19.8314H25.6892V10.8444Z" fill="#107C41"/>
<path d="M25.6893 28.8186V19.8315H10.8818V28.8186V30.1154V36.0263C10.8818 36.9913 11.6659 37.7754 12.6309 37.7754H38.7777C39.7428 37.7754 40.5269 36.9913 40.5269 36.0263V28.8186H25.6893Z" fill="#185B37"/>
<path d="M38.7777 1.8877H25.6591V10.8747H40.5571V3.63685C40.5269 2.6718 39.7428 1.8877 38.7777 1.8877Z" fill="#33C481"/>
<path d="M25.6901 1.8877H12.6619C11.6969 1.8877 10.9128 2.6718 10.9128 3.63685V10.8445H25.7202V1.8877H25.6901Z" fill="#21A365"/>
<path d="M19.8993 29.633H3.91566C2.86014 29.633 1.98557 28.7584 1.98557 27.7029V11.9605C1.98557 10.905 2.86014 10.0304 3.91566 10.0304H19.8993C20.9548 10.0304 21.8294 10.905 21.8294 11.9605V27.7029C21.8294 28.7584 20.985 29.633 19.8993 29.633Z" fill="#17864C"/>
<path d="M14.1691 25.3806L12.993 23.2394C12.5105 22.395 12.2089 21.822 11.8771 21.1887H11.847C11.5756 21.822 11.3041 22.395 10.8518 23.2394L9.79623 25.3806H7.50427L10.7613 19.922L7.59474 14.554H9.91687L11.093 16.7856C11.4549 17.4491 11.7263 17.992 11.9978 18.5951H12.0581C12.3596 17.9316 12.5708 17.4491 12.9326 16.7856L14.1088 14.554H16.4008L13.1739 19.8316L16.5214 25.3806H14.1691Z" fill="white"/>
<path opacity="0.2" d="M22.0709 11.7794C22.0709 11.8397 22.0709 11.9 22.0709 11.9604V27.7027C22.0709 28.7583 21.1964 29.6328 20.1409 29.6328H11.1237V31.3518H21.7392C22.7947 31.3518 23.6693 30.4772 23.6693 29.4217V13.6794C23.6995 12.7143 22.9757 11.9 22.0709 11.7794Z" fill="black"/>
</g>
<defs>
<clipPath id="clip0_2_2968">
<rect width="38.5714" height="36" fill="white" transform="translate(1.98557 1.8877)"/>
</clipPath>
</defs>
</svg>
