<svg width="16" height="16" viewBox="0 0 16 16" fill="none" xmlns="http://www.w3.org/2000/svg">
<path fill-rule="evenodd" clip-rule="evenodd" d="M10.5768 9.54717H10.0348L9.84268 9.36192C10.5151 8.57976 10.9199 7.56432 10.9199 6.45969C10.9199 3.99657 8.9233 2 6.46018 2C3.99706 2 2.00049 3.99657 2.00049 6.45969C2.00049 8.92281 3.99706 10.9194 6.46018 10.9194C7.56481 10.9194 8.58025 10.5146 9.36241 9.8422L9.54766 10.0343V10.5763L12.9782 14L14.0005 12.9777L10.5768 9.54717ZM6.46019 9.54715C4.75179 9.54715 3.37271 8.16808 3.37271 6.45967C3.37271 4.75127 4.75179 3.37219 6.46019 3.37219C8.16859 3.37219 9.54767 4.75127 9.54767 6.45967C9.54767 8.16808 8.16859 9.54715 6.46019 9.54715Z" fill="#898989"/>
</svg>
