<svg width="14" height="14" viewBox="0 0 14 14" fill="none" xmlns="http://www.w3.org/2000/svg">
<path d="M7.66666 3.66667H6.33333V6.33334H3.66666V7.66667H6.33333V10.3333H7.66666V7.66667H10.3333V6.33334H7.66666V3.66667ZM7 0.333336C3.32666 0.333336 0.333328 3.32667 0.333328 7C0.333328 10.6733 3.32666 13.6667 7 13.6667C10.6733 13.6667 13.6667 10.6733 13.6667 7C13.6667 3.32667 10.6733 0.333336 7 0.333336ZM7 12.3333C4.06 12.3333 1.66666 9.94 1.66666 7C1.66666 4.06 4.06 1.66667 7 1.66667C9.93999 1.66667 12.3333 4.06 12.3333 7C12.3333 9.94 9.93999 12.3333 7 12.3333Z" fill="#4C87EC"/>
</svg>
