<svg width="24" height="21" viewBox="0 0 24 21" fill="none" xmlns="http://www.w3.org/2000/svg">
<path d="M23.9978 6.02537C23.9548 7.51732 23.3414 8.93599 22.2838 9.98919L18.561 13.7141C18.0188 14.2593 17.3738 14.6915 16.6634 14.9857C15.9531 15.2799 15.1914 15.4303 14.4225 15.4282H14.4172C13.6351 15.4277 12.8612 15.2704 12.141 14.9657C11.4207 14.661 10.7689 14.215 10.2239 13.6542C9.67896 13.0933 9.25192 12.429 8.96802 11.7003C8.68413 10.9716 8.54915 10.1935 8.57105 9.41176C8.57744 9.18446 8.67387 8.969 8.83912 8.8128C9.00436 8.65659 9.2249 8.57243 9.4522 8.57882C9.6795 8.58521 9.89495 8.68164 10.0512 8.84689C10.2074 9.01213 10.2915 9.23267 10.2851 9.45997C10.2695 10.0127 10.3649 10.5629 10.5655 11.0782C10.7662 11.5934 11.0681 12.0632 11.4534 12.4598C11.8387 12.8564 12.2996 13.1717 12.8088 13.3871C13.318 13.6026 13.8653 13.7138 14.4182 13.7141C14.9618 13.7155 15.5002 13.6091 16.0024 13.4012C16.5046 13.1932 16.9606 12.8878 17.344 12.5025L21.0668 8.77969C21.8348 8.00193 22.264 6.95188 22.2606 5.85878C22.2572 4.76569 21.8214 3.71835 21.0485 2.94541C20.2756 2.17247 19.2282 1.73672 18.1351 1.7333C17.042 1.72988 15.992 2.15907 15.2142 2.92715L14.0358 4.10559C13.8737 4.25953 13.658 4.34408 13.4345 4.34122C13.211 4.33836 12.9975 4.24831 12.8394 4.09027C12.6814 3.93223 12.5914 3.7187 12.5885 3.49522C12.5856 3.27174 12.6702 3.05598 12.8241 2.89394L14.0026 1.71551C14.5463 1.17164 15.1918 0.740203 15.9022 0.445853C16.6127 0.151502 17.3741 0 18.1432 0C18.9122 0 19.6737 0.151502 20.3841 0.445853C21.0946 0.740203 21.7401 1.17164 22.2838 1.71551C22.8469 2.28004 23.2893 2.95326 23.5839 3.69419C23.8786 4.43513 24.0194 5.22828 23.9978 6.02537ZM9.96375 16.4631L8.78531 17.6415C8.40095 18.0284 7.94352 18.3351 7.43959 18.5437C6.93567 18.7522 6.39531 18.8585 5.84994 18.8564C5.03178 18.8557 4.23218 18.6126 3.55216 18.1577C2.87214 17.7027 2.34222 17.0565 2.02936 16.3005C1.71649 15.5445 1.63472 14.7128 1.79437 13.9104C1.95403 13.1079 2.34794 12.3708 2.92635 11.7922L6.6427 8.06942C7.22805 7.48098 7.97681 7.08215 8.79173 6.92471C9.60666 6.76728 10.4501 6.85852 11.2125 7.18658C11.9749 7.51465 12.621 8.06438 13.067 8.76438C13.513 9.46438 13.7382 10.2823 13.7133 11.1119C13.7069 11.3392 13.7911 11.5598 13.9473 11.725C14.1035 11.8903 14.319 11.9867 14.5463 11.9931C14.7736 11.9995 14.9941 11.9153 15.1593 11.7591C15.3246 11.6029 15.421 11.3874 15.4274 11.1601C15.448 10.3643 15.3067 9.57257 15.012 8.83299C14.7174 8.09342 14.2755 7.42142 13.7133 6.85777C12.6154 5.76035 11.1266 5.14387 9.57433 5.14387C8.02201 5.14387 6.53323 5.76035 5.43534 6.85777L1.7147 10.5806C0.896469 11.3985 0.339054 12.4405 0.112895 13.5751C-0.113263 14.7097 0.00198629 15.8859 0.444079 16.955C0.886172 18.0241 1.63527 18.9382 2.59669 19.5817C3.55812 20.2252 4.68874 20.5693 5.84565 20.5705C6.61471 20.5727 7.37657 20.4223 8.08712 20.1281C8.79768 19.8339 9.44281 19.4016 9.98517 18.8564L11.1636 17.6779C11.3023 17.5146 11.3748 17.3052 11.3667 17.091C11.3586 16.8769 11.2706 16.6735 11.12 16.521C10.9694 16.3686 10.7672 16.278 10.5532 16.2673C10.3391 16.2566 10.1288 16.3264 9.96375 16.4631Z" fill="#707579"/>
</svg>
