<svg width="26" height="26" viewBox="0 0 26 26" fill="none" xmlns="http://www.w3.org/2000/svg">
<path d="M18 11C18 11.2653 17.8946 11.5196 17.7071 11.7071C17.5196 11.8947 17.2652 12 17 12H9C8.73478 12 8.48043 11.8947 8.29289 11.7071C8.10536 11.5196 8 11.2653 8 11C8 10.7348 8.10536 10.4805 8.29289 10.2929C8.48043 10.1054 8.73478 10 9 10H17C17.2652 10 17.5196 10.1054 17.7071 10.2929C17.8946 10.4805 18 10.7348 18 11ZM17 14H9C8.73478 14 8.48043 14.1054 8.29289 14.2929C8.10536 14.4805 8 14.7348 8 15C8 15.2653 8.10536 15.5196 8.29289 15.7071C8.48043 15.8947 8.73478 16 9 16H17C17.2652 16 17.5196 15.8947 17.7071 15.7071C17.8946 15.5196 18 15.2653 18 15C18 14.7348 17.8946 14.4805 17.7071 14.2929C17.5196 14.1054 17.2652 14 17 14ZM26 13C26.0005 15.2445 25.4199 17.4508 24.3147 19.4042C23.2095 21.3577 21.6174 22.9917 19.6934 24.1473C17.7693 25.3029 15.5788 25.9407 13.3352 25.9986C11.0915 26.0564 8.87107 25.5324 6.89 24.4775L2.63375 25.8963C2.28136 26.0138 1.9032 26.0309 1.54166 25.9455C1.18012 25.8602 0.849484 25.6759 0.586814 25.4132C0.324144 25.1506 0.139818 24.8199 0.0544969 24.4584C-0.0308244 24.0968 -0.0137696 23.7187 0.10375 23.3663L1.5225 19.11C0.595185 17.3666 0.0772463 15.4348 0.00799667 13.4613C-0.061253 11.4877 0.320007 9.52438 1.12284 7.72021C1.92567 5.91604 3.12897 4.31847 4.6414 3.04878C6.15383 1.77909 7.93564 0.870635 9.85158 0.392383C11.7675 -0.0858696 13.7672 -0.121353 15.699 0.288624C17.6307 0.698602 19.4436 1.54327 21.0001 2.7585C22.5566 3.97374 23.8158 5.52761 24.6822 7.30216C25.5485 9.07671 25.9992 11.0253 26 13ZM24 13C23.9995 11.3127 23.6109 9.64808 22.8641 8.13497C22.1174 6.62186 21.0325 5.30083 19.6935 4.27408C18.3545 3.24733 16.7973 2.54238 15.1422 2.21377C13.4872 1.88517 11.7787 1.94171 10.149 2.37904C8.51935 2.81636 7.01212 3.62274 5.74394 4.73578C4.47577 5.84882 3.48065 7.2387 2.83558 8.79787C2.1905 10.357 1.91277 12.0437 2.02387 13.7274C2.13496 15.4111 2.63191 17.0466 3.47625 18.5075C3.54712 18.6302 3.59112 18.7665 3.60534 18.9074C3.61956 19.0484 3.60368 19.1907 3.55875 19.325L2 24L6.675 22.4413C6.77683 22.4066 6.88367 22.3888 6.99125 22.3888C7.16688 22.3891 7.33933 22.4357 7.49125 22.5238C9.1635 23.4913 11.0611 24.0013 12.9931 24.0026C14.925 24.0038 16.8232 23.4961 18.4967 22.5307C20.1702 21.5653 21.5599 20.1762 22.526 18.5031C23.492 16.83 24.0004 14.932 24 13Z" fill="white"/>
</svg>
